<svg xmlns="http://www.w3.org/2000/svg" viewBox="420 200 480 250">
  <style>
    @media (prefers-color-scheme: dark) {
      .signature { stroke: #e5e5e5; }
    }
    @media (prefers-color-scheme: light) {
      .signature { stroke: #333333; }
    }
  </style>
  <g class="signature" fill="none" stroke="#333333" stroke-width="4" stroke-linecap="round" stroke-linejoin="round">
    <!-- H stroke -->
    <path d="M 426,336 C 430,330 435,323 442,315 C 450,305 458,295 468,283 C 480,270 490,260 502,247 C 512,237 518,231 525,224 C 528,220 528,220 527,221 C 525,223 522,227 517,234 C 512,242 507,249 500,260 C 492,272 487,280 480,292 C 473,304 468,312 462,322 C 456,332 453,338 449,346 C 446,354 444,359 442,364 C 440,369 440,370 441,371 C 442,371 444,369 445,367 C 446,364 447,361 447,358 C 446,355 444,354 442,355 C 441,356 440,359 440,362 C 440,365 441,368 442,370 C 444,371 446,371 449,366 C 452,361 454,357 458,348 C 463,338 467,330 473,318 C 479,306 484,298 491,286 C 498,274 503,266 511,255 C 519,244 524,238 530,230 C 536,222 537,220 536,218 C 535,216 533,216 530,219 C 527,222 524,226 519,233 C 514,240 510,245 503,254 C 496,263 491,268 483,278 C 475,288 470,294 462,304 C 454,314 449,320 442,329 C 435,338 432,342 428,348 C 425,353 424,355 424,357 C 424,359 425,360 426,359"/>
    <!-- o stroke -->
    <path d="M 568,214 C 567,216 567,219 566,225 C 565,232 564,238 561,248 C 558,258 555,265 550,278 C 545,290 541,298 536,310 C 531,322 528,329 524,338 C 520,347 518,351 516,356 C 514,361 514,360 515,360 C 516,360 517,361 519,357 C 521,353 523,349 527,342 C 531,334 534,328 539,318 C 544,308 548,300 553,288 C 558,276 562,268 566,256 C 570,244 572,238 573,230 C 574,222 574,219 573,216 C 572,213 571,212 569,212 C 568,212 568,213 568,214"/>
    <!-- m stroke -->
    <path d="M 468,307 C 467,308 467,310 469,312 C 471,314 474,315 480,316 C 486,317 490,317 498,316 C 507,315 512,315 521,313 C 530,311 535,310 544,308 C 553,306 559,304 568,302 C 577,300 581,299 585,297 C 589,295 588,293 586,292 C 584,291 581,291 576,293 C 571,295 567,297 561,301 C 555,305 552,307 548,311 C 544,315 542,317 540,321 C 538,325 538,328 539,331 C 541,334 543,335 548,335 C 553,335 556,334 562,332 C 568,329 572,327 578,323 C 584,319 588,316 593,311 C 598,306 601,304 604,299 C 607,294 608,292 608,288 C 608,284 607,283 605,282 C 603,281 601,281 598,283 C 595,285 593,287 591,291 C 589,295 589,298 590,303 C 591,308 592,311 594,316 C 597,321 599,323 603,325 C 607,327 610,328 615,328 C 620,328 623,327 629,325 C 635,322 639,320 645,316 C 651,312 654,309 659,304 C 664,299 666,296 670,291 C 674,286 675,284 676,280 C 677,276 676,275 675,274 C 674,273 672,273 669,275 C 666,277 664,279 661,284 C 658,289 656,293 652,301 C 648,309 645,314 641,322 C 637,330 634,335 631,343 C 628,351 627,354 628,358 C 629,362 631,363 635,362 C 639,361 642,359 648,354 C 654,349 658,345 665,338 C 672,331 677,326 684,319 C 691,312 696,307 703,300 C 710,293 715,289 721,284 C 727,279 730,277 733,274 C 736,271 737,270 736,269 C 735,268 733,269 730,272 C 727,275 724,278 719,285 C 714,292 711,297 706,305 C 701,313 698,318 694,326 C 690,334 688,339 688,344 C 688,349 690,351 694,350 C 698,349 702,347 709,342 C 716,337 720,333 728,326 C 736,319 741,314 749,307 C 757,300 762,295 769,289 C 776,283 779,281 783,277 C 787,273 788,272 787,271 C 786,270 784,271 781,274 C 778,277 775,281 770,288 C 765,295 762,300 757,308 C 752,316 749,321 745,329 C 741,337 739,342 740,347 C 741,352 743,353 748,352 C 753,351 757,349 764,344 C 771,339 776,335 784,328 C 792,321 797,316 805,309 C 813,302 818,298 825,292 C 832,286 835,284 839,280 C 843,276 844,275 843,273 C 842,271 840,272 837,275 C 834,278 831,282 826,289 C 821,296 818,301 813,309 C 808,317 805,322 801,330 C 797,338 795,343 796,348 C 797,353 799,354 804,353 C 809,352 813,350 821,345 C 829,340 834,336 842,329 C 850,322 855,317 863,310 C 871,303 876,299 883,293 C 890,287 893,285 897,281 C 901,277 902,276 901,274 C 900,272 898,273 895,276 C 892,279 889,283 884,290 C 879,297 876,302 871,310 C 866,318 863,323 859,331 C 855,339 853,344 854,349 C 855,354 857,355 862,354 C 867,353 871,351 879,346 C 887,341 892,337 900,330 C 908,323 913,318 921,311 C 929,304 934,300 941,294 C 948,288 951,286 955,282 C 959,278 960,277 959,275 C 958,273 956,274 953,277 C 950,280 947,284 942,291 C 937,298 934,303 929,311 C 924,319 921,324 917,332 C 913,340 911,345 912,350 C 913,355 915,356 920,355 C 925,354 929,352 937,347 C 945,342 950,338 958,331 C 966,324 971,319 979,312"/>
  </g>
</svg>